<svg viewBox="0 0 32 32" xmlns="http://www.w3.org/2000/svg" xmlns:xlink="http://www.w3.org/1999/xlink"><clipPath id="a"><path clip-rule="evenodd" d="m21.15 1.75a5.82 5.82 0 0 0 -5.15 2.4 5.81 5.81 0 0 0 -5.22-2.31c-4 .2-6 3.59-6 6.81 0 2.8.94 4.85 5.85 9.33a41.63 41.63 0 0 0 4.89 3.78 1.07 1.07 0 0 0 1.2 0 39.65 39.65 0 0 0 4.83-3.86c4.84-4.56 5.73-6.62 5.71-9.42-.05-3.22-2.13-6.59-6.11-6.73z"/></clipPath><clipPath id="b"><path d="m2.5-2.38h27.15v27.15h-27.15z"/></clipPath><g clip-path="url(#a)"><g clip-path="url(#b)"><path d="m-.89-3.91h33.79v31.5h-33.79z" fill="#ea3f60"/></g></g></svg>